{"title":"Robot Chicken S08E18 Women 1080p AS WEBRip AAC2 0 H 264-monkee","uid":14580344,"size":693166777,"categoryP":"video","categoryS":"hd___tv_shows","magnet":"?xt=urn:btih:b131319cf66d5b1b3981545d7a1925c7818ab0b6&amp;dn=Robot+Chicken+S08E18+Women+1080p+AS+WEBRip+AAC2+0+H+264-monkee&amp;tr=udp%3A%2F%2Ftracker.leechers-paradise.org%3A6969&amp;tr=udp%3A%2F%2Fzer0day.ch%3A1337&amp;tr=udp%3A%2F%2Fopen.demonii.com%3A1337&amp;tr=udp%3A%2F%2Ftracker.coppersurfer.tk%3A6969&amp;tr=udp%3A%2F%2Fexodus.desync.com%3A6969","seeders":1,"leechers":0,"uploader":"Anon_up","files":1,"time":1462867880,"description":"[center][img]https://i.imgur.com/p94fYT2.png[/img]\r\n\r\nScreenShots\r\n[img]https://i.imgur.com/Bp1Pf1s.jpg[/img]\r\n\r\nInfo[quote]\r\n\r\nEP 19 Not Enough Women\r\n\r\nThe writers of Robot Chicken imagine what would happen if Darth Vader learned to say &quot;I'm Sorry.&quot; Bugs Bunny takes his cross-dressing to the next level. The Terminator changes the future a bit too much. Edna Mode gets an incredible new job.\r\n\r\nCredits to monkee\r\n\r\nTorrent by RnC\r\n\r\nUse Torrent\r\nand a client that supports HTTPS Seeding\r\nSeed for long to keep it alive\r\n[/quote]\r\n\r\n\r\n\r\n[spoiler=&quot;MediaInfo&quot;]\r\n\r\nGeneral \r\nUnique ID : 188552431969855049348651866411680555089 (0x8DD9E0A2A553C73FA9540303FCCA6051) \r\nComplete name : Robot.Chicken.S08E18.Not.Enough.Women.1080p.AS.WEBRip.AAC2.0.H.264-monkee.mkv \r\nFormat : Matroska \r\nFormat version : Version 4 / Version 2 \r\nFile size : 661 MiB \r\nDuration : 11mn 14s \r\nOverall bit rate : 8 220 Kbps \r\nEncoded date : UTC 2016-05-09 21:31:46 \r\nWriting application : mkvmerge v7.9.0 ('Birds') 32bit \r\nWriting library : libebml v1.3.1 + libmatroska v1.4.2 \r\n\r\nVideo \r\nID : 1 \r\nFormat : AVC \r\nFormat/Info : Advanced Video Codec \r\nFormat profile :    \r\nFormat settings, CABAC : Yes \r\nFormat settings, ReFrames : 2 frames \r\nCodec ID : V_MPEG4/ISO/AVC \r\nDuration : 11mn 14s \r\nBit rate mode : Constant \r\nBit rate : 8 092 Kbps \r\nNominal bit rate : 8 500 Kbps \r\nWidth : 1 920 pixels \r\nHeight : 1 080 pixels \r\nDisplay aspect ratio : 16:9 \r\nFrame rate mode : Constant \r\nFrame rate : 29.970 (29970/1000) fps \r\nOriginal frame rate : 29.970 (30000/1001) fps \r\nColor space : YUV \r\nChroma subsampling : 4:2:0 \r\nBit depth : 8 bits \r\nScan type : Progressive \r\nBits/(Pixel*Frame) : 0.130 \r\nStream size : 651 MiB (98%) \r\nDefault : Yes \r\nForced : No \r\n\r\nAudio \r\nID : 2 \r\nFormat : AAC \r\nFormat/Info : Advanced Audio Codec \r\nFormat profile : LC \r\nCodec ID : A_AAC \r\nDuration : 11mn 14s \r\nBit rate : 126 Kbps \r\nChannel(s) : 2 channels \r\nChannel positions : Front: L R \r\nSampling rate : 44.1 KHz \r\nFrame rate : 43.066 fps (1024 spf) \r\nCompression mode : Lossy \r\nDelay relative to video : -23ms \r\nStream size : 10.1 MiB (2%) \r\nDefault : Yes \r\nForced : No \r\n\r\nText \r\nID : 3 \r\nFormat : UTF-8 \r\nCodec ID : S_TEXT/UTF8 \r\nCodec ID/Info : UTF-8 Plain Text \r\nDuration : 10mn 54s \r\nBit rate : 95 bps \r\nCount of elements : 411 \r\nStream size : 7.63 KiB (0%) \r\nLanguage : English \r\nDefault : No \r\nForced : No \r\n\r\n\r\n\r\n[/spoiler]","torrent":{"xt":"urn:btih:b131319cf66d5b1b3981545d7a1925c7818ab0b6","amp;dn":"Robot+Chicken+S08E18+Women+1080p+AS+WEBRip+AAC2+0+H+264-monkee","amp;tr":["udp%3A%2F%2Ftracker.leechers-paradise.org%3A6969","udp%3A%2F%2Fzer0day.ch%3A1337","udp%3A%2F%2Fopen.demonii.com%3A1337","udp%3A%2F%2Ftracker.coppersurfer.tk%3A6969","udp%3A%2F%2Fexodus.desync.com%3A6969"],"infoHash":"b131319cf66d5b1b3981545d7a1925c7818ab0b6","infoHashBuffer":{"type":"Buffer","data":[177,49,49,156,246,109,91,27,57,129,84,93,122,25,37,199,129,138,176,182]},"announce":[],"urlList":[]}}